<svg width="114" height="32" viewBox="0 0 114 32" fill="none" xmlns="http://www.w3.org/2000/svg">
<path fill-rule="evenodd" clip-rule="evenodd" d="M0 4.57143C0 2.0467 2.0467 0 4.57143 0H27.4286C29.9533 0 32 2.0467 32 4.57143V27.4286C32 29.9533 29.9533 32 27.4286 32H4.57143C2.0467 32 0 29.9533 0 27.4286V4.57143ZM5.02381 7.41125V25.1429H9.73377V14.8225H9.87229L13.8203 25.0043H16.6602L20.6082 14.8918H20.7468V25.1429H25.4567V7.41125H19.4654L15.3442 17.4545H15.1364L11.0152 7.41125H5.02381ZM15.2381 9.14286C16.9212 9.14286 18.2857 7.77839 18.2857 6.09524C18.2857 4.41208 16.9212 3.04762 15.2381 3.04762C13.5549 3.04762 12.1905 4.41208 12.1905 6.09524C12.1905 7.77839 13.5549 9.14286 15.2381 9.14286Z" fill="#005FEC"/>
<path d="M40.3699 23H42.9409V16.3665C42.9409 15.0241 43.8358 14.1151 44.9437 14.1151C46.0304 14.1151 46.7761 14.8466 46.7761 15.9688V23H49.2974V16.196C49.2974 14.9673 50.0289 14.1151 51.2718 14.1151C52.3088 14.1151 53.1326 14.7259 53.1326 16.0753V23H55.7108V15.6776C55.7108 13.2415 54.3045 11.9489 52.3017 11.9489C50.7179 11.9489 49.5105 12.7301 49.0275 13.9446H48.9139C48.4949 12.7088 47.4366 11.9489 45.9664 11.9489C44.5034 11.9489 43.4096 12.7017 42.9551 13.9446H42.8272V12.0909H40.3699V23ZM63.1486 23.2131C65.6912 23.2131 67.4384 21.9702 67.8929 20.0739L65.4924 19.804C65.1444 20.7273 64.2921 21.2102 63.1841 21.2102C61.5222 21.2102 60.4213 20.1165 60.4 18.2486H67.9995V17.4602C67.9995 13.6321 65.6983 11.9489 63.0137 11.9489C59.8887 11.9489 57.8503 14.2429 57.8503 17.6094C57.8503 21.0327 59.8603 23.2131 63.1486 23.2131ZM60.4071 16.5156C60.4853 15.1236 61.5151 13.9517 63.0492 13.9517C64.5265 13.9517 65.5208 15.0312 65.535 16.5156H60.4071ZM75.622 12.0909H73.47V9.47727H70.899V12.0909H69.3507V14.0795H70.899V20.1449C70.8848 22.1974 72.3762 23.206 74.3081 23.1491C75.0396 23.1278 75.5439 22.9858 75.8208 22.8935L75.3876 20.8835C75.2456 20.919 74.9544 20.983 74.6348 20.983C73.9885 20.983 73.47 20.7557 73.47 19.7188V14.0795H75.622V12.0909ZM83.2196 12.0909H81.0676V9.47727H78.4966V12.0909H76.9483V14.0795H78.4966V20.1449C78.4824 22.1974 79.9739 23.206 81.9057 23.1491C82.6373 23.1278 83.1415 22.9858 83.4185 22.8935L82.9853 20.8835C82.8432 20.919 82.552 20.983 82.2324 20.983C81.5861 20.983 81.0676 20.7557 81.0676 19.7188V14.0795H83.2196V12.0909ZM85.3699 23H87.9409V12.0909H85.3699V23ZM86.6625 10.5426C87.4792 10.5426 88.1468 9.91761 88.1468 9.15057C88.1468 8.37642 87.4792 7.75142 86.6625 7.75142C85.8386 7.75142 85.171 8.37642 85.171 9.15057C85.171 9.91761 85.8386 10.5426 86.6625 10.5426ZM93.1557 16.608C93.1557 15.0312 94.1074 14.1222 95.464 14.1222C96.7921 14.1222 97.5875 14.9957 97.5875 16.4517V23H100.159V16.054C100.166 13.4403 98.6742 11.9489 96.4228 11.9489C94.7892 11.9489 93.6671 12.7301 93.1699 13.9446H93.0421V12.0909H90.5847V23H93.1557V16.608ZM107.517 27.3182C110.464 27.3182 112.637 25.9688 112.637 23.1776V12.0909H110.102V13.8949H109.96C109.569 13.1065 108.752 11.9489 106.828 11.9489C104.306 11.9489 102.325 13.9233 102.325 17.5099C102.325 21.0682 104.306 22.8438 106.82 22.8438C108.688 22.8438 109.562 21.8423 109.96 21.0398H110.088V23.1065C110.088 24.7116 109.022 25.3722 107.559 25.3722C106.011 25.3722 105.329 24.6406 105.017 24.0014L102.701 24.5625C103.17 26.0895 104.74 27.3182 107.517 27.3182ZM107.538 20.8267C105.84 20.8267 104.945 19.5057 104.945 17.4957C104.945 15.5142 105.826 14.0582 107.538 14.0582C109.193 14.0582 110.102 15.429 110.102 17.4957C110.102 19.5767 109.178 20.8267 107.538 20.8267Z" fill="#18216D"/>
</svg>
